<svg width="30" height="30" viewBox="0 0 30 30" fill="none" xmlns="http://www.w3.org/2000/svg">
<path d="M15.6235 13.5895V11.7652C16.2316 11.4105 16.8535 11.1444 17.4893 10.9671C18.125 10.7897 18.793 10.701 19.4932 10.701C19.9724 10.701 20.4423 10.7517 20.9029 10.853C21.3636 10.9544 21.8151 11.0811 22.2574 11.2331V12.9054C21.8151 12.6774 21.3682 12.5063 20.9168 12.3923C20.4653 12.2783 19.9908 12.2213 19.4932 12.2213C18.793 12.2213 18.1204 12.3416 17.4754 12.5823C16.8305 12.8231 16.2131 13.1588 15.6235 13.5895ZM15.6235 21.951V20.0887C16.2316 19.734 16.8535 19.4742 17.4893 19.3095C18.125 19.1448 18.793 19.0625 19.4932 19.0625C19.9724 19.0625 20.4423 19.1132 20.9029 19.2145C21.3636 19.3159 21.8151 19.4426 22.2574 19.5946V21.2669C21.8151 21.0389 21.3682 20.8678 20.9168 20.7538C20.4653 20.6398 19.9908 20.5828 19.4932 20.5828C18.793 20.5828 18.1204 20.6968 17.4754 20.9248C16.8305 21.1529 16.2131 21.4949 15.6235 21.951ZM15.6235 17.7703V15.9459C16.2316 15.5912 16.8535 15.3252 17.4893 15.1478C18.125 14.9704 18.793 14.8818 19.4932 14.8818C19.9724 14.8818 20.4423 14.9324 20.9029 15.0338C21.3636 15.1351 21.8151 15.2618 22.2574 15.4139V17.0861C21.8151 16.8581 21.3682 16.6871 20.9168 16.5731C20.4653 16.459 19.9908 16.402 19.4932 16.402C18.793 16.402 18.1204 16.5224 17.4754 16.7631C16.8305 17.0038 16.2131 17.3395 15.6235 17.7703ZM6.99938 24.0034C7.99447 24.0034 8.95731 24.1617 9.8879 24.4785C10.8185 24.7952 11.7353 25.2703 12.6382 25.9037V9.67483C11.809 8.9147 10.9106 8.32559 9.94318 7.90752C8.97574 7.48944 7.99447 7.28041 6.99938 7.28041C6.29914 7.28041 5.61271 7.40076 4.94011 7.64147C4.26751 7.88218 3.59029 8.1799 2.90848 8.53463V25.0296C3.47973 24.6748 4.1293 24.4151 4.85719 24.2504C5.58507 24.0857 6.29914 24.0034 6.99938 24.0034ZM14.2967 25.9037C15.2181 25.2703 16.121 24.7952 17.0055 24.4785C17.89 24.1617 18.8299 24.0034 19.8249 24.0034C20.5252 24.0034 21.2485 24.0794 21.9948 24.2314C22.7411 24.3834 23.3814 24.5861 23.9158 24.8395V8.53463C23.2893 8.10388 22.6259 7.78716 21.9257 7.58446C21.2254 7.38176 20.5252 7.28041 19.8249 7.28041C18.8299 7.28041 17.867 7.48944 16.9364 7.90752C16.0058 8.32559 15.1259 8.9147 14.2967 9.67483V25.9037ZM13.4674 29.3243C12.5276 28.3615 11.5049 27.6204 10.3993 27.1009C9.29361 26.5815 8.16032 26.3218 6.99938 26.3218C6.31757 26.3218 5.65418 26.4358 5.00921 26.6639C4.36425 26.8919 3.71929 27.1706 3.07432 27.5C2.65049 27.7787 2.24048 27.7407 1.84429 27.386C1.4481 27.0312 1.25 26.5245 1.25 25.8657V8.26858C1.25 7.88851 1.3145 7.54012 1.44349 7.2234C1.57248 6.90667 1.76597 6.65963 2.02396 6.48226C2.79791 5.97551 3.60412 5.60177 4.44257 5.36106C5.28102 5.12036 6.13329 5 6.99938 5C8.16032 5 9.289 5.21537 10.3854 5.64612C11.4819 6.07686 12.5092 6.73564 13.4674 7.62247C14.4072 6.73564 15.4162 6.07686 16.4942 5.64612C17.5722 5.21537 18.6824 5 19.8249 5C20.691 5 21.5387 5.12036 22.3679 5.36106C23.1972 5.60177 23.9988 5.97551 24.7727 6.48226C25.0307 6.65963 25.2288 6.90667 25.367 7.2234C25.5052 7.54012 25.5743 7.88851 25.5743 8.26858V25.8657C25.5743 26.5752 25.367 27.1136 24.9524 27.481C24.5378 27.8484 24.1278 27.8547 23.7224 27.5C23.0958 27.1453 22.4601 26.8602 21.8151 26.6448C21.1701 26.4295 20.5068 26.3218 19.8249 26.3218C18.664 26.3218 17.5491 26.5878 16.4803 27.1199C15.4115 27.652 14.4072 28.3868 13.4674 29.3243Z" fill="#4ABD94"/>
</svg>
