<svg width="185" height="36" viewBox="0 0 185 36" fill="none" xmlns="http://www.w3.org/2000/svg">
<path d="M17.968 35.48C14.224 35.48 11.056 34.776 8.46398 33.368C5.90398 31.96 3.95198 29.96 2.60798 27.368C1.26398 24.776 0.59198 21.704 0.59198 18.152C0.59198 14.568 1.27998 11.48 2.65598 8.88802C4.03198 6.26402 6.01598 4.24802 8.60798 2.84002C11.2 1.40002 14.304 0.680018 17.92 0.680018C20.288 0.680018 22.512 1.03202 24.592 1.73602C26.672 2.40802 28.4 3.35202 29.776 4.56802L27.712 9.36802C26.208 8.18402 24.672 7.33602 23.104 6.82402C21.536 6.31202 19.808 6.05602 17.92 6.05602C14.336 6.05602 11.616 7.09602 9.75998 9.17602C7.93598 11.256 7.02398 14.248 7.02398 18.152C7.02398 22.088 7.96798 25.08 9.85598 27.128C11.744 29.176 14.544 30.2 18.256 30.2C19.312 30.2 20.384 30.12 21.472 29.96C22.592 29.768 23.696 29.496 24.784 29.144V21.272H17.008V16.712H29.92V32.984C28.352 33.752 26.496 34.36 24.352 34.808C22.208 35.256 20.08 35.48 17.968 35.48Z" fill="#141414"/>
<path d="M44.1917 35.48C42.4957 35.48 40.9757 35.16 39.6317 34.52C38.3197 33.848 37.2797 32.952 36.5117 31.832C35.7757 30.712 35.4077 29.448 35.4077 28.04C35.4077 26.312 35.8557 24.952 36.7517 23.96C37.6477 22.936 39.1037 22.2 41.1197 21.752C43.1357 21.304 45.8397 21.08 49.2317 21.08H50.9117V20.072C50.9117 18.472 50.5597 17.32 49.8557 16.616C49.1517 15.912 47.9677 15.56 46.3037 15.56C44.9917 15.56 43.6477 15.768 42.2717 16.184C40.8957 16.568 39.5037 17.176 38.0957 18.008L36.3677 13.928C37.1997 13.352 38.1757 12.856 39.2957 12.44C40.4477 11.992 41.6477 11.656 42.8957 11.432C44.1757 11.176 45.3757 11.048 46.4957 11.048C49.9197 11.048 52.4637 11.848 54.1277 13.448C55.7917 15.016 56.6237 17.464 56.6237 20.792V35H51.0077V31.256C50.4637 32.568 49.5997 33.608 48.4157 34.376C47.2317 35.112 45.8237 35.48 44.1917 35.48ZM45.4397 31.352C47.0077 31.352 48.3037 30.808 49.3277 29.72C50.3837 28.632 50.9117 27.256 50.9117 25.592V24.536H49.2797C46.2717 24.536 44.1757 24.776 42.9917 25.256C41.8397 25.704 41.2637 26.536 41.2637 27.752C41.2637 28.808 41.6317 29.672 42.3677 30.344C43.1037 31.016 44.1277 31.352 45.4397 31.352Z" fill="#141414"/>
<path d="M76.2497 35.48C74.5217 35.48 72.9697 35.096 71.5937 34.328C70.2497 33.56 69.2417 32.52 68.5697 31.208V35H62.7137V1.16002H68.7137V14.984C69.4177 13.8 70.4257 12.856 71.7377 12.152C73.0817 11.416 74.5857 11.048 76.2497 11.048C78.3297 11.048 80.1377 11.544 81.6737 12.536C83.2097 13.528 84.4097 14.936 85.2737 16.76C86.1377 18.552 86.5697 20.712 86.5697 23.24C86.5697 25.736 86.1377 27.912 85.2737 29.768C84.4097 31.592 83.1937 33 81.6257 33.992C80.0897 34.984 78.2977 35.48 76.2497 35.48ZM74.5697 30.92C76.3617 30.92 77.8017 30.28 78.8897 29C79.9777 27.688 80.5217 25.768 80.5217 23.24C80.5217 20.68 79.9777 18.776 78.8897 17.528C77.8017 16.248 76.3617 15.608 74.5697 15.608C72.7777 15.608 71.3377 16.248 70.2497 17.528C69.1617 18.776 68.6177 20.68 68.6177 23.24C68.6177 25.768 69.1617 27.688 70.2497 29C71.3377 30.28 72.7777 30.92 74.5697 30.92Z" fill="#141414"/>
<path d="M91.495 35V11.528H97.351V15.656C98.503 12.872 100.967 11.336 104.743 11.048L106.567 10.904L106.951 15.992L103.495 16.328C99.559 16.712 97.591 18.728 97.591 22.376V35H91.495Z" fill="#141414"/>
<path d="M109.908 6.48802V0.632019H116.628V6.48802H109.908ZM110.292 35V11.528H116.292V35H110.292Z" fill="#141414"/>
<path d="M134.094 35.48C131.438 35.48 129.15 34.984 127.23 33.992C125.31 33 123.822 31.592 122.766 29.768C121.742 27.944 121.23 25.784 121.23 23.288C121.23 20.856 121.726 18.728 122.718 16.904C123.742 15.08 125.134 13.656 126.894 12.632C128.686 11.576 130.718 11.048 132.99 11.048C136.318 11.048 138.942 12.104 140.862 14.216C142.814 16.328 143.79 19.208 143.79 22.856V24.632H126.99C127.438 28.824 129.838 30.92 134.19 30.92C135.502 30.92 136.814 30.728 138.126 30.344C139.438 29.928 140.638 29.288 141.726 28.424L143.406 32.456C142.286 33.384 140.878 34.12 139.182 34.664C137.486 35.208 135.79 35.48 134.094 35.48ZM133.23 15.128C131.47 15.128 130.046 15.672 128.958 16.76C127.87 17.848 127.214 19.32 126.99 21.176H138.798C138.67 19.224 138.126 17.736 137.166 16.712C136.238 15.656 134.926 15.128 133.23 15.128Z" fill="#141414"/>
<path d="M156.702 35.48C153.918 35.48 151.854 34.728 150.51 33.224C149.198 31.688 148.542 29.448 148.542 26.504V1.16002H154.542V26.216C154.542 29.096 155.758 30.536 158.19 30.536C158.542 30.536 158.894 30.52 159.246 30.488C159.598 30.456 159.934 30.392 160.254 30.296L160.158 35.048C159.006 35.336 157.854 35.48 156.702 35.48Z" fill="#141414"/>
<path d="M171.598 35.48C169.902 35.48 168.382 35.16 167.038 34.52C165.726 33.848 164.686 32.952 163.918 31.832C163.182 30.712 162.814 29.448 162.814 28.04C162.814 26.312 163.262 24.952 164.158 23.96C165.054 22.936 166.51 22.2 168.526 21.752C170.542 21.304 173.246 21.08 176.638 21.08H178.318V20.072C178.318 18.472 177.966 17.32 177.262 16.616C176.558 15.912 175.374 15.56 173.71 15.56C172.398 15.56 171.054 15.768 169.678 16.184C168.302 16.568 166.91 17.176 165.502 18.008L163.774 13.928C164.606 13.352 165.582 12.856 166.702 12.44C167.854 11.992 169.054 11.656 170.302 11.432C171.582 11.176 172.782 11.048 173.902 11.048C177.326 11.048 179.87 11.848 181.534 13.448C183.198 15.016 184.03 17.464 184.03 20.792V35H178.414V31.256C177.87 32.568 177.006 33.608 175.822 34.376C174.638 35.112 173.23 35.48 171.598 35.48ZM172.846 31.352C174.414 31.352 175.71 30.808 176.734 29.72C177.79 28.632 178.318 27.256 178.318 25.592V24.536H176.686C173.678 24.536 171.582 24.776 170.398 25.256C169.246 25.704 168.67 26.536 168.67 27.752C168.67 28.808 169.038 29.672 169.774 30.344C170.51 31.016 171.534 31.352 172.846 31.352Z" fill="#141414"/>
</svg>
